<svg id="Capa_1" enable-background="new 0 0 512 512" height="512" viewBox="0 0 512 512" width="512" xmlns="http://www.w3.org/2000/svg"><g><path d="m507.69 100.18c-3.276-3.04-7.736-4.259-12.061-3.331l-19.559 4.189v-18.839c0-3.962-1.546-7.842-4.508-10.473-3.998-3.551-9.554-4.405-14.347-2.358l-23.785 10.164v-15.099c0-4.734-2.276-9.276-6.278-11.804-4.728-2.988-10.658-2.785-15.134.417l-123.63 88.423c-10.446 3.329-21.332 5.033-32.389 5.033-11.056 0-21.942-1.704-32.389-5.033l-123.629-88.425c-4.471-3.198-10.393-3.403-15.122-.424-4.007 2.524-6.288 7.067-6.288 11.802v14.13l-23.715-10.293c-4.791-2.081-10.355-1.251-14.376 2.289-2.987 2.629-4.551 6.524-4.551 10.503v19.987l-19.559-4.189c-4.322-.924-8.775.286-12.051 3.321-2.84 2.633-4.319 6.425-4.319 10.298v9.932c0 4.118 3.173 7.709 7.289 7.832 4.259.128 7.752-3.287 7.752-7.517v-8.769l197.474 42.29v171.466c0 4.118 3.173 7.709 7.289 7.832 4.259.128 7.752-3.287 7.752-7.517v-167.836c9.281 2.227 18.809 3.361 28.446 3.361s19.165-1.134 28.446-3.361v284.41c-9.232 2.552-18.774 3.859-28.446 3.859s-19.214-1.307-28.446-3.859v-79.786c0-4.118-3.173-7.709-7.289-7.832-4.259-.128-7.752 3.287-7.752 7.517v76.388l-197.475-42.289v-241.099c0-4.118-3.173-7.708-7.289-7.832-4.258-.128-7.751 3.286-7.751 7.516v242.631c0 6.342 4.501 11.908 10.702 13.236l207.445 44.425c12.197 3.992 24.928 6.024 37.854 6.024s25.657-2.033 37.855-6.025l207.444-44.424c4.061-.87 6.648-4.867 5.779-8.928-.87-4.061-4.868-6.651-8.928-5.779l-198.663 42.544v-284.642l68.148-14.595v64.728c0 4.664 2.833 9.001 7.255 10.486 2.939 1.118 7.933.531 11.346-3.063l8.207-9.339 7.978 9.078c2.995 3.407 7.808 4.792 12.039 3.157 4.129-1.595 6.791-5.474 6.791-9.908v-76.621l75.708-16.213v255.43c0 4.118 3.173 7.709 7.289 7.832 4.259.128 7.752-3.287 7.752-7.517v-257.226c-.001-3.867-1.476-7.654-4.311-10.285zm-414.079-33.2 64.381 46.047-64.381-27.946zm-42.64 15.989 96.813 42.024-96.813-20.733zm367.419-15.99v18.979l-65.912 28.163zm-16.8 120.823c-1.806-2.055-4.411-3.234-7.148-3.234s-5.342 1.179-7.148 3.234l-4.62 5.257v-75.484l23.536-10.057v85.541zm19.661-86.71 39.779-16.997v20.165l-39.779 8.519z"/><path d="m454.114 279.553v-30.704c0-6.264-2.796-12.112-7.672-16.045-4.875-3.932-11.182-5.429-17.304-4.103l-70.555 15.273c-9.417 2.039-16.253 10.512-16.253 20.147v30.704c0 6.263 2.796 12.111 7.671 16.044 3.711 2.994 8.252 4.575 12.91 4.575 1.461 0 2.933-.155 4.395-.472l70.554-15.273c9.419-2.037 16.254-10.51 16.254-20.146zm-15.04 0c0 2.605-1.848 4.896-4.394 5.447l-70.554 15.273c-2.268.49-3.905-.485-4.68-1.109-.775-.625-2.074-2.02-2.074-4.338v-30.704c0-2.605 1.848-4.896 4.395-5.448l70.555-15.273c.429-.093.837-.133 1.22-.133 1.636 0 2.831.736 3.459 1.243.775.625 2.074 2.02 2.074 4.338v30.704z"/></g></svg>