<svg height="512pt" viewBox="-11 0 512 512" width="512pt" xmlns="http://www.w3.org/2000/svg">
<path fill="#fff" d="m112.800781 345.492188c-.097656.054687-9.980469 5.320312-21.300781 5.320312-11.304688 0-21.132812-5.226562-21.320312-5.328125-3.628907-1.984375-8.175782-.660156-10.167969 2.960937-2 3.628907-.675781 8.191407 2.953125 10.191407.53125.292969 13.21875 7.179687 28.535156 7.179687s28.003906-6.886718 28.535156-7.179687c3.628906-2 4.953125-6.5625 2.957032-10.191407-2-3.625-6.558594-4.949218-10.191407-2.953124zm0 0"/>
<path fill="#fff" d="m84.683594 320.472656c0 4.140625-3.359375 7.5-7.5 7.5-4.144532 0-7.5-3.359375-7.5-7.5 0-4.144531 3.355468-7.5 7.5-7.5 4.140625 0 7.5 3.355469 7.5 7.5zm0 0"/>
<path fill="#fff" d="m113.316406 320.472656c0 4.140625-3.355468 7.5-7.5 7.5-4.140625 0-7.5-3.359375-7.5-7.5 0-4.144531 3.359375-7.5 7.5-7.5 4.144532 0 7.5 3.355469 7.5 7.5zm0 0"/>
<path fill="#fff" d="m478.671875 432.230469c-1.914063-3.671875-6.441406-5.097657-10.117187-3.183594-3.671876 1.917969-5.097657 6.445313-3.183594 10.117187 5.726562 10.976563 8.628906 22.863282 8.628906 35.335938v.121094c0 12.339844-10.039062 22.378906-22.382812 22.378906h-108.238282c-4.441406 0-8.742187-1.328125-12.375-3.742188 3.171875-5.488281 4.996094-11.851562 4.996094-18.636718v-.121094c0-12.214844-2.410156-23.871094-6.773438-34.535156 12.964844-25.59375 39.414063-41.964844 68.273438-41.964844 18.324219 0 36.046875 6.574219 49.902344 18.511719 3.140625 2.703125 7.875 2.351562 10.578125-.789063 2.703125-3.136718 2.351562-7.871094-.785157-10.574218-8.140624-7.011719-17.398437-12.46875-27.304687-16.214844 18.039063-10.972656 30.109375-30.820313 30.109375-53.433594 0-34.464844-28.039062-62.5-62.5-62.5s-62.5 28.035156-62.5 62.5c0 22.621094 12.078125 42.472656 30.128906 53.445312-17.925781 6.800782-33.46875 19.136719-44.148437 35.386719-10.527344-15.996093-25.929688-28.507812-44.082031-35.402343 18.035156-10.976563 30.101562-30.820313 30.101562-53.429688 0-34.464844-28.035156-62.5-62.5-62.5-34.460938 0-62.5 28.035156-62.5 62.5 0 22.609375 12.070312 42.453125 30.105469 53.429688-18.15625 6.894531-33.558594 19.410156-44.089844 35.40625-3.417969-5.214844-7.355469-10.082032-11.8125-14.539063-9.320313-9.320313-20.304687-16.359375-32.273437-20.886719 18.015624-10.976562 30.070312-30.8125 30.070312-53.410156 0-34.464844-28.035156-62.5-62.5-62.5-34.460938 0-62.5 28.035156-62.5 62.5 0 22.601562 12.0625 42.441406 30.085938 53.417969-11.636719 4.402343-22.351563 11.175781-31.496094 20.101562-2.964844 2.894531-3.023438 7.644531-.128906 10.609375 2.894531 2.960938 7.644531 3.019532 10.605468.125 14.371094-14.027344 33.347656-21.753906 53.433594-21.753906 20.4375 0 39.648438 7.957031 54.097656 22.402344 5.765625 5.765625 10.519532 12.335937 14.175782 19.558594-4.363282 10.664062-6.773438 22.324218-6.773438 34.539062v.121094c0 6.785156 1.824219 13.148437 4.996094 18.636718-3.632813 2.414063-7.933594 3.742188-12.375 3.742188h-108.242188c-12.339844 0-22.378906-10.039062-22.378906-22.378906v-.121094c0-10.546875 2.105469-20.753906 6.253906-30.347656 1.644532-3.800782-.105468-8.214844-3.90625-9.859375-3.804687-1.644531-8.214844.105469-9.859375 3.90625-4.96875 11.484375-7.488281 23.695312-7.488281 36.300781v.121094c0 20.609375 16.769531 37.378906 37.378906 37.378906h108.242188c8.132812 0 15.972656-2.660156 22.382812-7.457031 6.242188 4.679687 13.988282 7.457031 22.375 7.457031h108.242188c8.386718 0 16.132812-2.773438 22.375-7.457031 6.410156 4.796875 14.25 7.457031 22.382812 7.457031h108.242188c20.609375 0 37.378906-16.769531 37.378906-37.378906v-.121094c0-14.703125-3.570312-29.320312-10.328125-42.269531zm-128.671875-96.730469c0-26.191406 21.308594-47.5 47.5-47.5s47.5 21.308594 47.5 47.5-21.308594 47.5-47.5 47.5-47.5-21.308594-47.5-47.5zm-306 0c0-26.191406 21.308594-47.5 47.5-47.5s47.5 21.308594 47.5 47.5-21.308594 47.5-47.5 47.5-47.5-21.308594-47.5-47.5zm153 0c0-26.191406 21.308594-47.5 47.5-47.5s47.5 21.308594 47.5 47.5-21.308594 47.5-47.5 47.5-47.5-21.308594-47.5-47.5zm-6.621094 161.5c-12.339844 0-22.378906-10.039062-22.378906-22.378906v-.121094c0-42.183594 34.316406-76.5 76.5-76.5s76.5 34.316406 76.5 76.5v.121094c0 12.339844-10.039062 22.378906-22.378906 22.378906zm0 0"/>
<path fill="#fff" d="m418.800781 345.492188c-.097656.054687-9.980469 5.320312-21.300781 5.320312-11.304688 0-21.132812-5.226562-21.320312-5.328125-3.628907-1.984375-8.175782-.660156-10.167969 2.960937-2 3.628907-.675781 8.191407 2.953125 10.191407.53125.292969 13.21875 7.179687 28.535156 7.179687s28.003906-6.886718 28.535156-7.179687c3.628906-2 4.953125-6.5625 2.957032-10.191407-2-3.625-6.5625-4.949218-10.191407-2.953124zm0 0"/>
<path fill="#fff" d="m390.683594 320.472656c0 4.140625-3.359375 7.5-7.5 7.5-4.144532 0-7.5-3.359375-7.5-7.5 0-4.144531 3.355468-7.5 7.5-7.5 4.140625 0 7.5 3.355469 7.5 7.5zm0 0"/>
<path fill="#fff" d="m419.316406 320.472656c0 4.140625-3.355468 7.5-7.5 7.5-4.140625 0-7.5-3.359375-7.5-7.5 0-4.144531 3.359375-7.5 7.5-7.5 4.144532 0 7.5 3.355469 7.5 7.5zm0 0"/>
<path fill="#fff" d="m265.800781 345.492188c-.097656.054687-9.980469 5.320312-21.300781 5.320312-11.304688 0-21.132812-5.226562-21.320312-5.328125-3.625-1.984375-8.175782-.660156-10.167969 2.960937-2 3.628907-.675781 8.191407 2.953125 10.191407.53125.292969 13.21875 7.179687 28.535156 7.179687s28.003906-6.886718 28.535156-7.179687c3.628906-2 4.953125-6.5625 2.957032-10.191407-2-3.625-6.558594-4.949218-10.191407-2.953124zm0 0"/>
<path fill="#fff" d="m237.683594 320.472656c0 4.140625-3.359375 7.5-7.5 7.5-4.144532 0-7.5-3.359375-7.5-7.5 0-4.144531 3.355468-7.5 7.5-7.5 4.140625 0 7.5 3.355469 7.5 7.5zm0 0"/>
<path fill="#fff" d="m266.316406 320.472656c0 4.140625-3.355468 7.5-7.5 7.5-4.140625 0-7.5-3.359375-7.5-7.5 0-4.144531 3.359375-7.5 7.5-7.5 4.144532 0 7.5 3.355469 7.5 7.5zm0 0"/>
<path fill="#fff" d="m294.5 105.257812h106c4.140625 0 7.5-3.359374 7.5-7.5 0-4.144531-3.359375-7.5-7.5-7.5h-106c-4.140625 0-7.5 3.355469-7.5 7.5 0 4.140626 3.359375 7.5 7.5 7.5zm0 0"/>
<path fill="#fff" d="m294.5 135.257812h106c4.140625 0 7.5-3.359374 7.5-7.5 0-4.144531-3.359375-7.5-7.5-7.5h-106c-4.140625 0-7.5 3.355469-7.5 7.5 0 4.140626 3.359375 7.5 7.5 7.5zm0 0"/>
<path fill="#fff" d="m294.5 165.257812h106c4.140625 0 7.5-3.359374 7.5-7.5 0-4.144531-3.359375-7.5-7.5-7.5h-106c-4.140625 0-7.5 3.355469-7.5 7.5 0 4.140626 3.359375 7.5 7.5 7.5zm0 0"/>
<path fill="#fff" d="m73.875 208.253906h35.917969c2.320312 19.523438 9.28125 33.800782 20.746093 42.492188 9.5 7.203125 20.390626 9.246094 29.6875 9.246094 5.785157 0 10.960938-.792969 14.792969-1.625 4.019531-.871094 6.878907-4.480469 6.804688-8.589844-.070313-4.109375-3.0625-7.621094-7.113281-8.347656-4.5625-.816407-7.675782-2.785157-9.792969-6.203126-4.46875-7.214843-3.542969-19.234374-2.109375-26.972656h46.3125c8.167968 0 15.890625-1.925781 22.75-5.324218 7.472656 19.441406 26.5 33.078124 48.007812 33.078124h46.308594c1.4375 7.746094 2.363281 19.765626-2.109375 26.976563-2.113281 3.414063-5.226563 5.386719-9.796875 6.203125-4.039062.726562-7.023438 4.230469-7.105469 8.332031-.082031 4.164063 2.707031 7.703125 6.804688 8.609375 3.832031.832032 9.003906 1.625 14.789062 1.625 9.300781 0 20.195313-2.046875 29.699219-9.253906 11.460938-8.695312 18.417969-22.96875 20.734375-42.492188h35.917969c28.328125 0 51.378906-23.03125 51.378906-51.339843v-105.566407c0-28.3125-23.050781-51.339843-51.378906-51.339843h-135.242188c-7.914062 0-15.71875 1.851562-22.75 5.3125-7.386718-19.3125-26.113281-33.074219-48.003906-33.074219h-92.625c-4.140625 0-7.5 3.355469-7.5 7.5s3.359375 7.5 7.5 7.5h92.625c20.058594 0 36.375 16.300781 36.375 36.339844v105.574218c0 20.039063-16.316406 36.339844-36.375 36.339844h-52.265625c-3.324219 0-6.25 2.1875-7.191406 5.375-.828125 2.800782-7.785157 27.84375 2.476562 44.460938.277344.449218.566407.890625.867188 1.320312-4.601563-.792968-9.269531-2.480468-13.40625-5.617187-9.15625-6.941407-14.355469-19.890625-15.457031-38.484375-.238282-3.960938-3.519532-7.054688-7.488282-7.054688h-42.785156c-20.058594 0-36.375-16.300781-36.375-36.339844v-105.574218c0-20.039063 16.316406-36.339844 36.375-36.339844h10.625c4.140625 0 7.5-3.355469 7.5-7.5s-3.359375-7.5-7.5-7.5h-10.625c-28.328125 0-51.375 23.03125-51.375 51.339844v105.574218c0 28.308594 23.046875 51.339844 51.375 51.339844zm186.625-51.339844v-105.574218c0-.988282-.035156-1.96875-.089844-2.941406 5.800782-3.695313 12.457032-5.636719 19.46875-5.636719h135.242188c20.058594 0 36.378906 16.300781 36.378906 36.339843v105.570313c0 20.035156-16.320312 36.339844-36.378906 36.339844h-42.78125c-3.96875 0-7.25 3.09375-7.488282 7.054687-1.101562 18.59375-6.296874 31.542969-15.449218 38.484375-4.140625 3.140625-8.8125 4.828125-13.417969 5.621094.300781-.433594.589844-.871094.867187-1.324219 10.265626-16.617187 3.308594-41.660156 2.480469-44.460937-.941406-3.1875-3.867187-5.375-7.191406-5.375h-52.261719c-16.5625 0-31.042968-11.410157-35.183594-27.105469 9.730469-9.347656 15.804688-22.46875 15.804688-36.992188zm0 0"/>
<path fill="#fff" d="m72 89.398438c0 15.75 8.183594 46.5 62.984375 75.488281 2.039063 1.078125 4.277344 1.617187 6.515625 1.617187s4.476562-.539062 6.515625-1.617187c54.800781-28.988281 62.984375-59.738281 62.984375-75.488281 0-24.054688-16.910156-42.898438-38.5-42.898438-14.863281 0-25.296875 7.007812-31 12.222656-5.699219-5.210937-16.132812-12.222656-31-12.222656-21.589844 0-38.5 18.84375-38.5 42.898438zm38.5-27.898438c10.578125 0 17.863281 5.15625 22.109375 9.476562 2.316406 2.363282 5.558594 3.714844 8.890625 3.714844s6.574219-1.351562 8.890625-3.710937c4.246094-4.324219 11.53125-9.480469 22.109375-9.480469 15.265625 0 23.5 14.375 23.5 27.898438 0 20.960937-19.855469 43.527343-54.5 61.964843-34.644531-18.4375-54.5-41.003906-54.5-61.964843 0-13.523438 8.234375-27.898438 23.5-27.898438zm0 0"/></svg>